<svg xmlns="http://www.w3.org/2000/svg" xmlns:xlink="http://www.w3.org/1999/xlink" viewBox="0 0 157.63 23.25"><defs><style>.cls-1,.cls-2,.cls-3,.cls-4,.cls-5,.cls-6,.cls-7,.cls-8,.cls-9{stroke:#fff;stroke-miterlimit:10;stroke-width:0.75px;}.cls-1{fill:url(#linear-gradient);}.cls-2{fill:url(#linear-gradient-2);}.cls-3{fill:url(#linear-gradient-3);}.cls-4{fill:url(#linear-gradient-4);}.cls-5{fill:url(#linear-gradient-5);}.cls-6{fill:url(#linear-gradient-6);}.cls-7{fill:url(#linear-gradient-7);}.cls-8{fill:url(#linear-gradient-8);}.cls-9{fill:url(#linear-gradient-9);}</style><linearGradient id="linear-gradient" x1="8.5" y1="0.38" x2="8.5" y2="22.88" gradientUnits="userSpaceOnUse"><stop offset="0" stop-color="#442cf7"/><stop offset="0.05" stop-color="#4c35f7"/><stop offset="0.13" stop-color="#634ff8"/><stop offset="0.23" stop-color="#8878fa"/><stop offset="0.36" stop-color="#bbb2fc"/><stop offset="0.49" stop-color="#fbfbff"/><stop offset="0.5" stop-color="#fff"/><stop offset="0.55" stop-color="#3b071e"/><stop offset="0.77" stop-color="#f120a2"/><stop offset="0.99" stop-color="#fff"/></linearGradient><linearGradient id="linear-gradient-2" x1="25.69" y1="0.38" x2="25.69" y2="22.88" xlink:href="#linear-gradient"/><linearGradient id="linear-gradient-3" x1="42.88" y1="0.38" x2="42.88" y2="22.88" xlink:href="#linear-gradient"/><linearGradient id="linear-gradient-4" x1="60.06" y1="0.38" x2="60.06" y2="22.88" xlink:href="#linear-gradient"/><linearGradient id="linear-gradient-5" x1="77.93" y1="0.38" x2="77.93" y2="22.88" xlink:href="#linear-gradient"/><linearGradient id="linear-gradient-6" x1="94.44" y1="0.38" x2="94.44" y2="22.88" xlink:href="#linear-gradient"/><linearGradient id="linear-gradient-7" x1="111.63" y1="0.38" x2="111.63" y2="22.88" xlink:href="#linear-gradient"/><linearGradient id="linear-gradient-8" x1="130.38" y1="0.38" x2="130.38" y2="22.88" xlink:href="#linear-gradient"/><linearGradient id="linear-gradient-9" x1="149.13" y1="0.38" x2="149.13" y2="22.88" xlink:href="#linear-gradient"/></defs><g id="Layer_2" data-name="Layer 2"><g id="Layer_1-2" data-name="Layer 1"><path class="cls-1" d="M.38,3.69,3.69.38h9.62l3.31,3.31V7.25H9.75V5.69H7.25V9h6.06l3.31,3.31v7.28l-3.31,3.32H3.69L.38,19.56V16H7.25v1.56h2.5V14.28H3.69L.38,11Z"/><path class="cls-2" d="M24.44.38V17.56h2.5V.38h6.87V19.56L30.5,22.88H20.88l-3.32-3.32V.38Z"/><path class="cls-3" d="M41.62,15.06v7.82H34.75V.38H47.69L51,3.69v8.06l-3.31,3.31Zm2.5-9.37h-2.5V9.75h2.5Z"/><path class="cls-4" d="M58.81,5.69V9h9.38v5.31H58.81v3.28h9.38v5.32H55.25l-3.31-3.32V3.69L55.25.38H68.19V5.69Z"/><path class="cls-5" d="M76,15.84v7H69.12V.38H82.06l3.32,3.31v8.06l-2.71,2.7,4.06,8.43H79.39ZM78.5,5.69H76V9.75h2.5Z"/><path class="cls-6" d="M93.19,12.88v4.68h2.5V.38h6.87V19.56l-3.31,3.32H89.62l-3.31-3.32V12.88Z"/><path class="cls-7" d="M119.75,19.56l-3.31,3.32h-9.63l-3.31-3.32V3.69L106.84.38h9.6l3.31,3.31Zm-6.87-2V5.69h-2.5V17.56Z"/><path class="cls-8" d="M126.22,22.88,120.59.38h6.91l2.88,11.53L133.25.38h6.91l-5.63,22.5Z"/><path class="cls-9" d="M147.88,16.62v6.26H141V3.69L144.31.38h9.63l3.31,3.31V22.88h-6.87V16.62Zm2.5-5.31V5.69h-2.5v5.62Z"/></g></g></svg>