<svg xmlns="http://www.w3.org/2000/svg" viewBox="0 0 431.92 50.4"><defs><style>.cls-1{fill:#fff;}</style></defs><g id="Layer_2" data-name="Layer 2"><g id="Layer_1-2" data-name="Layer 1"><path class="cls-1" d="M0,10.08V7.2a2.48,2.48,0,0,1,.07-.72,1.27,1.27,0,0,1,0-.32,2.5,2.5,0,0,0,0-.4H43.2v4.32Zm0,5.76V11.52H10.8v4.32ZM.14,21.6a2.6,2.6,0,0,0,0-.4,1.27,1.27,0,0,1,0-.32A2.44,2.44,0,0,1,0,20.16V17.28H36a6.66,6.66,0,0,1,6.62,4.32ZM43.2,43.2a2.44,2.44,0,0,1-.07.72,1.27,1.27,0,0,1,0,.32,2.6,2.6,0,0,0,0,.4H0V40.32H43.2Zm-.58,2.88A6.66,6.66,0,0,1,36,50.4H0V46.08ZM.58,4.32A6.58,6.58,0,0,1,7.2,0h36V4.32Zm6.62,23A6.58,6.58,0,0,1,.58,23H43.06a2.5,2.5,0,0,0,0,.4,1.33,1.33,0,0,1,0,.32,2.48,2.48,0,0,1,.07.72v2.88Zm25.2,5.76V28.8H43.2v4.32Zm0,5.76V34.56H43.2v4.32Z"/><path class="cls-1" d="M48.74,4.32V0h10.8V4.32Zm0,5.76V5.76h10.8v4.32Zm0,5.76V11.52h10.8v4.32Zm0,5.76V17.28h10.8V21.6Zm0,5.76V23h10.8v4.32Zm0,5.76V28.8h10.8v4.32Zm0,5.76V34.56h10.8v4.32Zm43.2,4.32a2.44,2.44,0,0,1-.07.72,1.91,1.91,0,0,1,0,.32,1.75,1.75,0,0,0,0,.4H48.89a1.75,1.75,0,0,0,0-.4,1.91,1.91,0,0,1,0-.32,2.35,2.35,0,0,1-.08-.72V40.32h43.2Zm-.57,2.88a6.68,6.68,0,0,1-6.63,4.32H55.94a6.59,6.59,0,0,1-6.62-4.32ZM81.14,4.32V0h10.8V4.32Zm0,5.76V5.76h10.8v4.32Zm0,5.76V11.52h10.8v4.32Zm0,5.76V17.28h10.8V21.6Zm0,5.76V23h10.8v4.32Zm0,5.76V28.8h10.8v4.32Zm0,5.76V34.56h10.8v4.32Z"/><path class="cls-1" d="M97.78,4.32V0h36a6.68,6.68,0,0,1,6.62,4.32Zm0,5.76V5.76h43.05a1.7,1.7,0,0,0,0,.4,1.91,1.91,0,0,1,0,.32,2.4,2.4,0,0,1,.08.72v2.88Zm0,5.76V11.52h10.8v4.32ZM141,20.16a2.35,2.35,0,0,1-.08.72,1.91,1.91,0,0,1,0,.32,1.75,1.75,0,0,0,0,.4H97.78V17.28H141ZM140.4,23a6.68,6.68,0,0,1-6.62,4.32h-36V23ZM97.78,33.12V28.8h10.8v4.32Zm0,5.76V34.56h10.8v4.32Zm0,5.76V40.32h10.8v4.32Zm0,5.76V46.08h10.8V50.4Zm32.4-34.56V11.52H141v4.32Z"/><path class="cls-1" d="M144.21,10.08V7.2a2.4,2.4,0,0,1,.08-.72,1.91,1.91,0,0,1,0-.32,1.7,1.7,0,0,0,0-.4h39.45v4.32Zm0,5.76V11.52H155v4.32Zm0,5.76V17.28h39.6V21.6Zm0,5.76V23h39.6v4.32Zm0,5.76V28.8H155v4.32Zm0,5.76V34.56H155v4.32Zm.15,5.76a1.75,1.75,0,0,0,0-.4,1.91,1.91,0,0,1,0-.32,2.35,2.35,0,0,1-.08-.72V40.32h39.6v4.32Zm.43-40.32A6.6,6.6,0,0,1,151.42,0h32.39V4.32Zm6.63,46.08a6.6,6.6,0,0,1-6.63-4.32h39V50.4Z"/><path class="cls-1" d="M189.29,4.32V0h36a6.68,6.68,0,0,1,6.62,4.32Zm0,5.76V5.76h43.05a1.7,1.7,0,0,0,0,.4,1.91,1.91,0,0,1,0,.32,2.4,2.4,0,0,1,.08.72v2.88Zm0,5.76V11.52h10.8v4.32Zm42.62,1.44a6.68,6.68,0,0,1-6.62,4.32h-36V17.28ZM189.29,27.36V23h36a6.68,6.68,0,0,1,6.62,4.32Zm0,5.76V28.8h10.8v4.32Zm0,5.76V34.56h10.8v4.32Zm0,5.76V40.32h10.8v4.32Zm0,5.76V46.08h10.8V50.4Zm43.2-36a2.35,2.35,0,0,1-.08.72,1.82,1.82,0,0,1,0,.32,1.7,1.7,0,0,0,0,.4H221.69V11.52h10.8Zm-10.8,18.72V28.8h10.65a1.7,1.7,0,0,0,0,.4,1.91,1.91,0,0,1,0,.32,2.4,2.4,0,0,1,.08.72v2.88Zm0,5.76V34.56h10.8v4.32Zm0,5.76V40.32h10.8v4.32Zm0,5.76V46.08h10.8V50.4Z"/><path class="cls-1" d="M235.65,33.12V28.8h10.8v4.32Zm0,5.76V34.56h10.8v4.32Zm43.2,4.32a2.44,2.44,0,0,1-.07.72,1.91,1.91,0,0,1,0,.32,1.75,1.75,0,0,0,0,.4H235.8a1.75,1.75,0,0,0,0-.4,1.91,1.91,0,0,1,0-.32,2.35,2.35,0,0,1-.08-.72V40.32h43.2Zm-.57,2.88a6.68,6.68,0,0,1-6.63,4.32h-28.8a6.59,6.59,0,0,1-6.62-4.32ZM268.05,4.32V0h10.8V4.32Zm0,5.76V5.76h10.8v4.32Zm0,5.76V11.52h10.8v4.32Zm0,5.76V17.28h10.8V21.6Zm0,5.76V23h10.8v4.32Zm0,5.76V28.8h10.8v4.32Zm0,5.76V34.56h10.8v4.32Z"/><path class="cls-1" d="M284.54,10.08V7.2a2.48,2.48,0,0,1,.07-.72,1.27,1.27,0,0,1,0-.32,2.5,2.5,0,0,0,0-.4H327.6a2.5,2.5,0,0,0,0,.4,1.27,1.27,0,0,1,0,.32,2.48,2.48,0,0,1,.07.72v2.88Zm0,5.76V11.52h10.8v4.32Zm0,5.76V17.28h10.8V21.6Zm0,5.76V23h10.8v4.32Zm0,5.76V28.8h10.8v4.32Zm0,5.76V34.56h10.8v4.32Zm43.2,4.32a2.44,2.44,0,0,1-.07.72,1.27,1.27,0,0,1,0,.32,2.6,2.6,0,0,0,0,.4H284.68a2.6,2.6,0,0,0,0-.4,1.27,1.27,0,0,1,0-.32,2.44,2.44,0,0,1-.07-.72V40.32h43.2ZM285.12,4.32A6.58,6.58,0,0,1,291.74,0h28.8a6.66,6.66,0,0,1,6.62,4.32Zm42,41.76a6.66,6.66,0,0,1-6.62,4.32h-28.8a6.58,6.58,0,0,1-6.62-4.32ZM316.94,15.84V11.52h10.8v4.32Zm0,5.76V17.28h10.8V21.6Zm0,5.76V23h10.8v4.32Zm0,5.76V28.8h10.8v4.32Zm0,5.76V34.56h10.8v4.32Z"/><path class="cls-1" d="M333.5,4.32,331.77,0H344l1.73,4.32Zm2.3,5.76-1.72-4.32h12.24L348,10.08Zm2.31,5.76-1.73-4.32h12.24l1.73,4.32Zm2.3,5.76-1.73-4.32h12.24l1.73,4.32Zm2.31,5.76L341,23h12.24L355,27.36Zm2.3,5.76-1.73-4.32h12.24l1.73,4.32Zm25.2,5.76h-22.9l-1.72-4.32h12.24l.93,2.38.94-2.38H372Zm-2.3,5.76H349.63l-1.73-4.32h21.74Zm-2.31,5.76H351.93l-1.73-4.32h17.14Zm6.91-17.28H360.28L362,28.8h12.24Zm2.31-5.76H362.59L364.32,23h12.24Zm2.3-5.76H364.89l1.73-4.32h12.24Zm2.31-5.76H367.2l1.72-4.32h12.24Zm2.3-5.76H369.5l1.73-4.32h12.24ZM384,4.32H371.8L373.53,0h12.24Z"/><path class="cls-1" d="M390.16,50.4H377.92l1.73-4.32h12.24Zm2.31-5.76H380.23L382,40.32H394.2Zm-9.94-5.76,1.73-4.32h41.33l1.73,4.32Zm2.31-5.76,1.72-4.32h36.72L425,33.12Zm14.54-5.76H387.14L388.87,23h12.24Zm2.3-5.76H389.44l1.73-4.32h12.24Zm4.18-5.76-.94-2.38L404,15.84H391.75l1.73-4.32h22.89l1.73,4.32Zm-11.81-5.76,1.73-4.32h18.29l1.73,4.32Zm2.31-5.76L398.08,0h13.69l1.72,4.32Zm11.8,17.28-1.72-4.32h12.24l1.72,4.32Zm2.31,5.76L408.74,23H421l1.73,4.32Zm6.91,17.28-1.73-4.32h12.24l1.73,4.32Zm2.31,5.76L418,46.08H430.2l1.72,4.32Z"/></g></g></svg>