<svg xmlns="http://www.w3.org/2000/svg" viewBox="0 0 194.14 22.4"><defs><style>.cls-1{fill:#fff;}</style></defs><g id="Layer_2" data-name="Layer 2"><g id="Layer_1-2" data-name="Layer 1"><path class="cls-1" d="M19.2,19.2A3.18,3.18,0,0,1,16,22.4H0V17.92H14.4V12.16H3.2a3.08,3.08,0,0,1-2.27-.93A3.08,3.08,0,0,1,0,9V3.2A3.08,3.08,0,0,1,.93.93,3.08,3.08,0,0,1,3.2,0h16V4.48H4.8v3.2H16a3.18,3.18,0,0,1,3.2,3.2Z"/><path class="cls-1" d="M41.34,19.2a3.16,3.16,0,0,1-3.2,3.2H25.34a3.18,3.18,0,0,1-3.2-3.2V0h4.8V17.92h9.6V0h4.8Z"/><path class="cls-1" d="M63.49,9a3.18,3.18,0,0,1-3.2,3.2H49.09V22.4h-4.8V0h16a3.09,3.09,0,0,1,2.27.93,3.08,3.08,0,0,1,.93,2.27Zm-4.8-4.48h-9.6v3.2h9.6Z"/><path class="cls-1" d="M68.45,22.4a3.18,3.18,0,0,1-3.2-3.2V3.2A3.08,3.08,0,0,1,66.18.93,3.06,3.06,0,0,1,68.45,0h14.4V4.48H70.05v3.2h12.8v4.48H70.05v5.76h12.8V22.4Z"/><path class="cls-1" d="M99.36,22.4V12.16h-9.6V22.4H85V0h16a3.08,3.08,0,0,1,2.27.93,3.08,3.08,0,0,1,.93,2.27V6.72a3.18,3.18,0,0,1-3.2,3.2,3.18,3.18,0,0,1,3.2,3.2V22.4Zm0-17.92h-9.6v3.2h9.6Z"/><path class="cls-1" d="M125.12,19.2a3.18,3.18,0,0,1-3.2,3.2h-12.8a3.18,3.18,0,0,1-3.2-3.2V12.8h4.8v5.12h9.6V0h4.8Z"/><path class="cls-1" d="M147.23,19.2a3.18,3.18,0,0,1-3.2,3.2h-12.8a3.18,3.18,0,0,1-3.2-3.2V3.2A3.08,3.08,0,0,1,129,.93,3.08,3.08,0,0,1,131.23,0H144a3.08,3.08,0,0,1,2.27.93,3.08,3.08,0,0,1,.93,2.27Zm-4.8-14.72h-9.6V17.92h9.6Z"/><path class="cls-1" d="M164.41,22.4h-6.08l-9-22.4h5.44l6.56,16.42L167.93,0h5.44Z"/><path class="cls-1" d="M188.7,22.4l-2-5.12h-9l-2,5.12h-5.44l9-22.4h6.08l9,22.4ZM182.14,6l-2.72,6.82h5.44Z"/></g></g></svg>