<svg xmlns="http://www.w3.org/2000/svg" viewBox="0 0 194.8 40.32"><defs><style>.cls-1{fill:#f0f;}</style></defs><g id="Layer_2" data-name="Layer 2"><g id="Layer_1-2" data-name="Layer 1"><path class="cls-1" d="M39.62,5.5a6.71,6.71,0,0,1-.85,2.43A10.22,10.22,0,0,1,37.17,10a15.72,15.72,0,0,1-2.05,1.76Q34,12.57,33,13.24a37.09,37.09,0,0,1-7.29,3.49c-.75.28-1.52.53-2.32.77s-1.61.43-2.42.6l-.41.48-.64.76c-.24.26-.46.52-.68.78l-.48.58L13.16,27q-2.76,3.13-5.6,6.31L6.21,34.79c-.45.48-.9,1-1.37,1.46l-.6.64c-.2.21-.42.41-.65.61l-.29.24a.58.58,0,0,1-.18.11c-.05,0-.08,0-.08,0s.11-.28.18-.44a4.25,4.25,0,0,1,.27-.46c.51-.83,1.06-1.64,1.65-2.42s1.17-1.56,1.74-2.35c1.67-2.26,3.36-4.49,5.09-6.69s3.5-4.39,5.31-6.59l-1.15.19c-.38.07-.77.12-1.15.16a32,32,0,0,1-3.18.37,28.72,28.72,0,0,1-3.22.05l-.3-.05A.43.43,0,0,1,8,19.51s0-.06.06-.11a2.09,2.09,0,0,1,.3-.14c.12-.05.24-.08.36-.12l.2,0c.32-.07.79-.17,1.4-.32s1.28-.31,2-.47l2.29-.51,2.14-.51c.65-.16,1.2-.31,1.63-.43a3.22,3.22,0,0,0,.72-.26c.26-.28.48-.52.66-.74s.35-.41.49-.59l.45-.53.51-.57c.9-1.05,1.81-2.08,2.72-3.09s1.88-2,2.88-3a13.09,13.09,0,0,1,1.08-1c.39-.32.75-.6,1.07-.83l.3-.19q.21-.13.27,0c.07.12,0,.34-.09.64A8,8,0,0,1,29,7.7a9.83,9.83,0,0,1-.56.9l-.38.54c-.79,1.14-1.61,2.23-2.46,3.28L23,15.61q2.85-.9,5.72-2a25.7,25.7,0,0,0,5.36-2.78c.53-.36,1-.74,1.52-1.14A12.69,12.69,0,0,0,37,8.41a9,9,0,0,0,.67-.87,3.34,3.34,0,0,0,.46-1,2.48,2.48,0,0,0,.08-1,2,2,0,0,0-.45-1,4,4,0,0,0-1.6-1.16,12.21,12.21,0,0,0-1.88-.63,18.6,18.6,0,0,0-4.18-.49c-1.44,0-2.84,0-4.21.14a54.61,54.61,0,0,0-8.54,1.25A63,63,0,0,0,9.49,6,69.21,69.21,0,0,0,2,9.27c-.28.15-.55.3-.82.43s-.54.28-.81.4a.49.49,0,0,1-.21.1q-.18.06-.15,0a.9.9,0,0,1,.24-.29l.28-.19C1,9.39,1.49,9,2,8.71s1-.64,1.46-.94A48.63,48.63,0,0,1,7.72,5.4c1.6-.79,3.3-1.52,5.12-2.21A57.8,57.8,0,0,1,18.47,1.4,46.19,46.19,0,0,1,24.28.26,32.13,32.13,0,0,1,30,0,20.76,20.76,0,0,1,35.24,1a14.21,14.21,0,0,1,1.53.64,7.11,7.11,0,0,1,1.41.95,4.62,4.62,0,0,1,1,1.29A3.37,3.37,0,0,1,39.62,5.5Z"/><path class="cls-1" d="M36.74,23.32s-.06.15-.26.32l-.67.59c-.25.23-.51.44-.77.64l-.51.43c-.34.26-.68.52-1,.79s-.66.53-1,.78c-.52.43-1,.86-1.48,1.28s-.93.88-1.4,1.35l-.44.43a2.41,2.41,0,0,1-.46.37,1,1,0,0,1-.93,0,.79.79,0,0,1-.51-.75,1.72,1.72,0,0,1,.21-1c.18-.34.36-.64.53-.9.49-.81,1-1.59,1.53-2.35s1-1.54,1.51-2.35a.56.56,0,0,0,0-.48c-.05-.19-.1-.37-.14-.55a31,31,0,0,1-2.4,2c-.9.67-1.74,1.28-2.53,1.81A23.33,23.33,0,0,1,24,27c-.57.3-.87.41-.91.35s.14-.2.49-.48l1.33-1.06,1.76-1.4c.64-.52,1.24-1,1.81-1.54A20.08,20.08,0,0,0,30,21.4a2.74,2.74,0,0,0,.7-1.12,8.47,8.47,0,0,1,0-1.22,2,2,0,0,1,.49-1.18,1.23,1.23,0,0,1,.93-.42.85.85,0,0,1,.8.58,1.32,1.32,0,0,1,0,1.1c-.15.36-.31.69-.48,1a1.57,1.57,0,0,1-.13.29.76.76,0,0,0-.06.32,3.07,3.07,0,0,0,.24.85c.12.27.25.55.4.85a2,2,0,0,1,.14,1.2,2.7,2.7,0,0,1-.52,1.1l-.8,1.1c-.28.38-.55.75-.8,1.11q.73-.48,1.44-1c.47-.34,1-.68,1.44-1l.54-.36a11,11,0,0,1,1-.61l.94-.55C36.54,23.3,36.7,23.26,36.74,23.32Z"/><path class="cls-1" d="M45.64,23.16c-.18.19-.37.41-.6.64s-.44.45-.65.66l-.39.36c-.85.75-1.72,1.48-2.62,2.2a22.1,22.1,0,0,1-2.94,2,16.08,16.08,0,0,1-1.6.82,4.6,4.6,0,0,1-1.73.4,2.06,2.06,0,0,1-1.36-.5,1.4,1.4,0,0,1-.5-1.32,7.07,7.07,0,0,1,1.19-3.3,22.57,22.57,0,0,1,2.2-2.78,16,16,0,0,1,1.28-1.2c.45-.38.92-.73,1.41-1.08a12.38,12.38,0,0,1,1.47-.91,10.52,10.52,0,0,1,1.6-.65,2.84,2.84,0,0,1,.84-.15,1.71,1.71,0,0,1,.83.18,1.25,1.25,0,0,1,.7,1.23,3.43,3.43,0,0,1-.61,1.62c-.17.23-.34.46-.51.67s-.35.43-.54.64a11.91,11.91,0,0,1-2.59,2.11,22.82,22.82,0,0,1-2.05,1,16.85,16.85,0,0,1-2.34.78,6.07,6.07,0,0,0-1,2.05,5.71,5.71,0,0,0,2-.43,15.87,15.87,0,0,0,2.24-1.09c.74-.44,1.48-.9,2.2-1.38l2-1.29.41-.29.76-.56c.26-.2.62-.45,1.07-.75C45.87,22.85,45.81,23,45.64,23.16Zm-8,1.38a5.24,5.24,0,0,0-.5.6l-.4.58a9.57,9.57,0,0,0,2.13-.85,10.12,10.12,0,0,0,1.92-1.33,10.29,10.29,0,0,0,1.57-1.72,8.53,8.53,0,0,0,1.07-2.08,11.63,11.63,0,0,0-3.07,2.08C39.44,22.67,38.53,23.58,37.64,24.54Z"/><path class="cls-1" d="M61.8,23.74s0,.08-.13.17-.23.21-.37.32l-.4.35a2,2,0,0,1-.29.24,8.29,8.29,0,0,1-.72.61l-.72.58c-.55.43-1.11.87-1.66,1.33l-1.67,1.39c-.15.13-.31.29-.49.48a6,6,0,0,1-.47.45,3.29,3.29,0,0,1-.73.54.68.68,0,0,1-.83-.13.61.61,0,0,1-.23-.3c0-.12-.08-.24-.13-.37a3,3,0,0,1,0-1,7.8,7.8,0,0,1,.64-2c.15-.31.29-.6.44-.88a14.78,14.78,0,0,1,1.2-1.95c.51-.71,1-1.31,1.36-1.83-.74.47-1.47,1-2.17,1.54s-1.41,1.13-2.11,1.73c-.11.08-.36.31-.76.67s-.82.73-1.28,1.09a13.66,13.66,0,0,1-1.32.94q-.64.41-.87.24c-.13-.08-.14-.27-.05-.57a7.92,7.92,0,0,1,.47-1.09c.21-.43.46-.88.75-1.36s.58-.95.86-1.39.55-.85.79-1.2.4-.61.51-.76A36.22,36.22,0,0,0,47,25.35a46.8,46.8,0,0,0-4,4.5,3.43,3.43,0,0,0-.24.33.84.84,0,0,1-.31.28.79.79,0,0,1-.73-.05.75.75,0,0,1-.39-.63A4.56,4.56,0,0,1,42,27.64c.38-.7.78-1.39,1.2-2.05A12.8,12.8,0,0,1,44,24.5L45.2,23c.46-.53.95-1.08,1.46-1.65s1-1.09,1.49-1.6l1.31-1.36a12.86,12.86,0,0,1,.94-.89c.09-.07.12,0,.1.09a2.65,2.65,0,0,1-.14.48c-.08.2-.16.38-.24.56A2.18,2.18,0,0,1,50,19a16.64,16.64,0,0,1-1,1.66q-.57.84-1.2,1.68L46.52,24a17.29,17.29,0,0,0-1.08,1.7c.81-.66,1.6-1.33,2.36-2s1.48-1.32,2.17-1.92,1.36-1.13,2-1.61A11.22,11.22,0,0,1,53.8,19a1.07,1.07,0,0,1,.92,0,1,1,0,0,1,.45.61.9.9,0,0,1-.13.74,23.24,23.24,0,0,1-1.77,2.17c-.63.69-1.23,1.4-1.81,2.15a26.38,26.38,0,0,0,3.15-2.29l3-2.55,1-.8a3.38,3.38,0,0,1,1.12-.6,1.41,1.41,0,0,1,.45-.07,1,1,0,0,1,.45.13.94.94,0,0,1,.46.59.81.81,0,0,1-.14.75,4.76,4.76,0,0,1-.5.66c-.18.2-.35.41-.52.62s-.44.55-.66.8-.45.52-.69.77q-.68.76-1.29,1.59c-.42.54-.81,1.09-1.17,1.64a10.76,10.76,0,0,0-1.19,2.21c.43-.32.87-.63,1.32-.94l1.34-.95.78-.52,1.41-.92c.5-.32,1-.59,1.38-.83S61.75,23.67,61.8,23.74Z"/><path class="cls-1" d="M67.11,23.19a1.68,1.68,0,0,1,.33-.19c.18-.08.29-.11.31-.06v0s0,.05-.1.12c-.79.72-1.59,1.4-2.41,2s-1.64,1.28-2.45,2c-.34.3-.77.68-1.27,1.15L60.29,29.4l-.43.34a2.53,2.53,0,0,1-.51.28,1,1,0,0,1-.55.08,1.06,1.06,0,0,1-.56-.28.74.74,0,0,1-.17-.71,3.12,3.12,0,0,1,.24-.8,10.18,10.18,0,0,1,1-1.81c.45-.67,1-1.36,1.52-2.06s1.15-1.39,1.76-2.06,1.18-1.28,1.71-1.81,1-1,1.38-1.31a3.19,3.19,0,0,1,.77-.58.44.44,0,0,1,.35,0,.31.31,0,0,1,.11.09.19.19,0,0,1,0,.2c-.27.51-.6,1.06-1,1.66s-.8,1.22-1.25,1.87-.91,1.33-1.39,2-.94,1.4-1.39,2.13c.19-.15.45-.34.77-.56l.77-.53,1.82-1.2C65.82,23.93,66.45,23.56,67.11,23.19Zm3.58-9.63a.8.8,0,0,1,0,.53,1.76,1.76,0,0,1-.26.51,2.72,2.72,0,0,1-.4.43,1.63,1.63,0,0,1-.45.29,1.67,1.67,0,0,1-.46.14,1.93,1.93,0,0,1-.53,0,1.31,1.31,0,0,1-.48-.12.59.59,0,0,1-.32-.35,1,1,0,0,1,.13-1,2.1,2.1,0,0,1,.74-.69,1.34,1.34,0,0,1,.48-.21,2.27,2.27,0,0,1,.59-.08,1.47,1.47,0,0,1,.56.1A.65.65,0,0,1,70.69,13.56Z"/><path class="cls-1" d="M78.69,23.16c0,.06,0,.17-.19.3a3.12,3.12,0,0,0-.32.28c-1,.81-1.91,1.56-2.85,2.27q-.83.68-1.65,1.41l-1.61,1.47-.77.67a2,2,0,0,1-.32.22,1.39,1.39,0,0,1-.35.16.87.87,0,0,1-.71-.17,1,1,0,0,1-.38-.63,1.65,1.65,0,0,1,.13-.88,7.3,7.3,0,0,1,.41-.84,15.77,15.77,0,0,1,1.06-1.8q.57-.82,1.44-1.92c-.6.5-1.17,1-1.73,1.48l-1.66,1.47c-.47.43-.94.84-1.41,1.25s-1,.8-1.44,1.18c-.13.11-.28.22-.46.35a3.54,3.54,0,0,1-.55.32,1.24,1.24,0,0,1-.56.13.87.87,0,0,1-.54-.19,1,1,0,0,1-.4-.91,3.8,3.8,0,0,1,.25-1.24,6.81,6.81,0,0,1,.6-1.21l.54-.9A18.07,18.07,0,0,1,67.09,23,20.23,20.23,0,0,1,69.28,21a14.48,14.48,0,0,1,1.38-1,6.1,6.1,0,0,1,1.57-.74l.14,0a.91.91,0,0,1,.23,0h.17s0,.05,0,.12a1.54,1.54,0,0,1-.27.25,2.25,2.25,0,0,0-.31.26,6.25,6.25,0,0,0-.65.61c-.21.21-.41.43-.63.67-.44.51-.89,1.06-1.32,1.65s-.87,1.19-1.3,1.8-.84,1.24-1.25,1.86-.8,1.22-1.18,1.79A46.25,46.25,0,0,0,71,24.31c1.7-1.45,3.45-2.9,5.27-4.35.25-.21.56-.46.93-.74a3.44,3.44,0,0,1,.76-.48.46.46,0,0,1,.42.15.4.4,0,0,1,.1.4,2.12,2.12,0,0,1-.29.45l-.35.44-.47.61c-.24.32-.54.71-.89,1.15s-.73.93-1.12,1.44L74.2,24.86c-.36.47-.66.88-.92,1.24s-.41.61-.48.74l.48-.34,1.08-.75c.41-.3.86-.61,1.36-.94s.94-.63,1.37-.9.79-.47,1.09-.62S78.65,23.1,78.69,23.16Z"/><path class="cls-1" d="M94.66,23.74s0,.08-.13.17-.23.21-.37.32l-.4.35a2,2,0,0,1-.28.24c-.24.22-.48.42-.72.61s-.49.39-.72.58c-.56.43-1.11.87-1.67,1.33l-1.66,1.39c-.15.13-.32.29-.5.48a6.14,6.14,0,0,1-.46.45,3.35,3.35,0,0,1-.74.54A.83.83,0,0,1,86,29.77l-.12-.37a3,3,0,0,1,0-1,7.76,7.76,0,0,1,.26-1,6.42,6.42,0,0,1,.38-1c.15-.31.3-.6.45-.88a14.78,14.78,0,0,1,1.2-1.95c.5-.71.95-1.31,1.36-1.83-.75.47-1.47,1-2.18,1.54s-1.41,1.13-2.11,1.73c-.11.08-.36.31-.75.67s-.82.73-1.28,1.09a13.73,13.73,0,0,1-1.33.94c-.43.27-.72.35-.86.24s-.15-.27,0-.57a7.7,7.7,0,0,1,.46-1.09c.21-.43.47-.88.75-1.36s.58-.95.87-1.39l.78-1.2.51-.76a36.13,36.13,0,0,0-4.41,3.73,46.88,46.88,0,0,0-4,4.5,3.43,3.43,0,0,0-.24.33.89.89,0,0,1-.3.28.8.8,0,0,1-.74-.05.74.74,0,0,1-.38-.63,4.44,4.44,0,0,1,.56-2.14c.37-.7.77-1.39,1.2-2.05a10.91,10.91,0,0,1,.8-1.09L78.07,23c.46-.53.94-1.08,1.45-1.65L81,19.78l1.31-1.36a12.6,12.6,0,0,1,1-.89c.08-.07.11,0,.09.09a2.65,2.65,0,0,1-.14.48c-.08.2-.16.38-.24.56a2.18,2.18,0,0,1-.16.31,18.57,18.57,0,0,1-1,1.66q-.58.84-1.2,1.68c-.42.57-.83,1.13-1.22,1.68a17.18,17.18,0,0,0-1.07,1.7c.81-.66,1.59-1.33,2.35-2s1.48-1.32,2.18-1.92,1.36-1.13,2-1.61A11.16,11.16,0,0,1,86.66,19a1.09,1.09,0,0,1,.93,0,1,1,0,0,1,.45.61.93.93,0,0,1-.13.74,25.06,25.06,0,0,1-1.78,2.17c-.63.69-1.23,1.4-1.81,2.15a27.33,27.33,0,0,0,3.16-2.29l3-2.55,1-.8a3.29,3.29,0,0,1,1.12-.6,1.41,1.41,0,0,1,.45-.07,1,1,0,0,1,.91.72.85.85,0,0,1-.15.75,4.71,4.71,0,0,1-.49.66c-.18.2-.36.41-.53.62s-.43.55-.66.8-.45.52-.68.77c-.45.51-.88,1-1.3,1.59s-.81,1.09-1.17,1.64a10.72,10.72,0,0,0-1.18,2.21c.42-.32.86-.63,1.31-.94l1.34-.95.79-.52c.43-.29.9-.6,1.41-.92s1-.59,1.37-.83S94.62,23.67,94.66,23.74Z"/><path class="cls-1" d="M122.47,12.31h3c1.11,0,2.23,0,3.36.08a21.77,21.77,0,0,1,3.23.4,7.46,7.46,0,0,1,2.6,1,3.47,3.47,0,0,1,1.45,1.79,4.51,4.51,0,0,1-.14,2.85,8.71,8.71,0,0,1-1.68,3,18.73,18.73,0,0,1-2.45,2.43,35,35,0,0,1-3.26,2.44c-1.13.74-2.31,1.45-3.52,2.11q-2.11,1.15-4.23,2.14c-1.41.66-2.83,1.28-4.29,1.86s-2.89,1.07-4.33,1.53-2.91.89-4.4,1.25c-.75.19-1.51.36-2.29.51a9.1,9.1,0,0,1-2.32.16,11.21,11.21,0,0,1-1.15-.12,3.13,3.13,0,0,1-1.06-.39,1.93,1.93,0,0,1-.73-.75,2.31,2.31,0,0,1-.26-.93,3.23,3.23,0,0,1,.11-1c.1-.34.21-.67.34-1A10.39,10.39,0,0,1,102.18,29c.75-.83,1.49-1.62,2.24-2.36a4.77,4.77,0,0,1,.37-.34l.49-.42c.17-.13.32-.25.45-.33s.21-.12.26-.1,0,.11,0,.21a.66.66,0,0,0-.09.18q-.42.6-.87,1.2l-.92,1.23c-.09.11-.24.3-.45.59s-.45.62-.71,1-.51.79-.76,1.21a8.15,8.15,0,0,0-.61,1.22,3.15,3.15,0,0,0-.24,1,.67.67,0,0,0,.33.66,1.87,1.87,0,0,0,1,.28,10.23,10.23,0,0,0,1.12-.06,19.44,19.44,0,0,0,3-.58c1.12-.29,2.27-.65,3.44-1.07s2.34-.86,3.5-1.33,2.23-.91,3.19-1.34q2.17-1,4.27-2t4.14-2.29c1.09-.68,2.16-1.4,3.22-2.14a21.25,21.25,0,0,0,2.93-2.5c.21-.26.52-.59.91-1a12.86,12.86,0,0,0,1.14-1.35,8.62,8.62,0,0,0,.91-1.55,2.86,2.86,0,0,0,.24-1.61,1.54,1.54,0,0,0-1.11-1.12,8.92,8.92,0,0,0-2.51-.53,31.39,31.39,0,0,0-3.49-.11c-1.3,0-2.64.06-4,.12l-4.08.2c-1.35.06-2.57.08-3.68.06a16.78,16.78,0,0,1-2.83-.26,2.38,2.38,0,0,1-1.56-.76c-.36-.54-.2-1.29.48-2.28a14.45,14.45,0,0,1,3.75-3.29,33,33,0,0,1,8.48-3.84c.75-.19,1.48-.35,2.19-.47A12.77,12.77,0,0,1,128.55,3l.88.08a4.39,4.39,0,0,1,.89.18,2.56,2.56,0,0,1,.8.38,1.82,1.82,0,0,1,.59.67,1.38,1.38,0,0,1,.07,1.17,2.81,2.81,0,0,1-.72,1,6.74,6.74,0,0,1-1.11.84c-.4.24-.74.44-1,.59a3.23,3.23,0,0,1-.46.19l-.37.1.72-.61A11.08,11.08,0,0,0,130,6.47a3.44,3.44,0,0,0,.74-1.2c.13-.38,0-.65-.48-.8a3.14,3.14,0,0,0-1.07-.19,9.73,9.73,0,0,0-1.07.06l-1.16.16a10.7,10.7,0,0,0-1.12.26,21.11,21.11,0,0,0-4.35,1.63c-1.38.71-2.74,1.46-4.06,2.27-.68.45-1.37.93-2,1.44a8.34,8.34,0,0,0-1.76,1.8,8.29,8.29,0,0,0,1.9.35c.78.06,1.59.09,2.44.09h2.48Z"/><path class="cls-1" d="M144.35,18.62a1.38,1.38,0,0,1,.68.43l.22.27-.27-.08a3.27,3.27,0,0,0-.5-.08,3.32,3.32,0,0,0-1.21.11,6.33,6.33,0,0,0-1.22.51,12.24,12.24,0,0,0-1.23.8c-.42.31-.84.64-1.27,1q-.28.26-1.05,1A20.4,20.4,0,0,0,137,24.36a14.15,14.15,0,0,0-1.38,2.11,4.4,4.4,0,0,0-.59,2,5.67,5.67,0,0,0,2.17-.91,16.6,16.6,0,0,0,2.44-1.86,19,19,0,0,0,2.14-2.27A7.73,7.73,0,0,0,143,21.24a2.1,2.1,0,0,0,.16-.62,1.91,1.91,0,0,0-.06-.66c0-.13-.07-.2-.07-.22s.12,0,.28.14a1.47,1.47,0,0,1,.33.66,4.08,4.08,0,0,1-.37,3,10.21,10.21,0,0,1-2.08,2.85,15.19,15.19,0,0,1-2.91,2.27,10.51,10.51,0,0,1-2.86,1.28,2.67,2.67,0,0,1-1.63,0,1.55,1.55,0,0,1-.9-.89,2.49,2.49,0,0,1-.16-1.28,6.48,6.48,0,0,1,.46-1.59,10.28,10.28,0,0,1,.85-1.49,17.52,17.52,0,0,1,1.12-1.4,16.76,16.76,0,0,1,1.52-1.52,22.35,22.35,0,0,1,1.83-1.44,12,12,0,0,1,2-1.14,8.14,8.14,0,0,1,2-.62A4,4,0,0,1,144.35,18.62Z"/><path class="cls-1" d="M165.51,9.27c0,.09-.14.2-.48.34a9.49,9.49,0,0,1-1.36.41l-1.94.45q-1.09.24-2.22.45l-2.24.4c-.74.13-1.39.24-1.94.32-.49.75-1,1.51-1.55,2.29s-1.16,1.68-1.84,2.7l-1.17,1.73c-.39.58-.82,1.2-1.26,1.86l-1.46,2.11-1.74,2.49c-.15.24-.41.62-.77,1.14s-.77,1.13-1.22,1.81l-1.42,2.16-1.43,2.16c-.44.68-.84,1.28-1.2,1.81s-.61.9-.78,1.13c-.53.73-1.06,1.45-1.58,2.18s-1.06,1.44-1.62,2.14l-.19.24a3.07,3.07,0,0,1-.29.34l-.3.29q-.15.12-.18.09t.06-.48c.18-.49.37-1,.58-1.41s.44-.89.67-1.34.62-1.12,1.07-1.9l1.52-2.55c.56-.92,1.15-1.88,1.78-2.88l1.81-2.88,1.58-2.51,1.17-1.84q1.63-2.65,3.36-5.28c1.15-1.75,2.35-3.49,3.58-5.22-1.7.26-3.45.45-5.24.58h-.55a1.45,1.45,0,0,1-.3,0,.22.22,0,0,1-.18-.13.18.18,0,0,1,.08-.19,1.81,1.81,0,0,1,.27-.18l.31-.14.17-.07a18.92,18.92,0,0,1,1.83-.48l2-.38.31-.05c.18,0,.4-.07.65-.13l.84-.16.89-.14c.6-.77,1.19-1.56,1.78-2.38s1.2-1.62,1.85-2.39a21.42,21.42,0,0,1,2.1-2.16,12.68,12.68,0,0,1,2.5-1.74,2.29,2.29,0,0,1,.72-.21,1.23,1.23,0,0,1,.62.06.75.75,0,0,1,.38.4,1.2,1.2,0,0,1,0,.8,4.1,4.1,0,0,1-.59,1,6,6,0,0,1-1,1c.15-.36.28-.7.39-1s.21-.67.32-1a2.85,2.85,0,0,0-.37.23,2.28,2.28,0,0,0-.34.29A22.69,22.69,0,0,0,159,6.41q-1.31,1.71-2.64,3.69l2.89-.32,3-.28c.92-.09,1.69-.15,2.32-.2A5.66,5.66,0,0,1,165.51,9.27Z"/><path class="cls-1" d="M180.58,7.74c.83-.07,1.25-.07,1.25,0a8.73,8.73,0,0,1-1.22.28c-.38.09-.86.18-1.42.28l-1.91.33-5.45.88c-1.76.29-3.64.58-5.62.88l-2.86.42-2.71.35c-.64,1-1.21,1.8-1.71,2.53l-1,1.44c-.79,1.11-1.58,2.2-2.38,3.28l-2.42,3.25q-1,1.34-2,2.67c-.67.88-1.32,1.79-2,2.7.75-.53,1.51-1.05,2.28-1.55s1.54-1,2.33-1.49l.51-.29.52-.25c.19-.09.28-.11.28-.07s-.12.21-.36.44-.53.46-.85.72l-.93.72-.61.46-1.66,1.34c-.56.45-1.11.92-1.67,1.41a7.88,7.88,0,0,0-.62.55l-.62.57a3.44,3.44,0,0,1-.55.39.85.85,0,0,1-.67,0,.84.84,0,0,1-.56-.48,1.3,1.3,0,0,1,0-.71,3.4,3.4,0,0,1,.31-.75c.14-.24.26-.45.37-.62.21-.36.42-.71.64-1s.43-.65.67-1c.81-1.21,1.64-2.4,2.48-3.55s1.68-2.32,2.51-3.52l.94-1.28c.4-.53.82-1.11,1.28-1.73s.95-1.26,1.46-1.93l1.47-1.94-1.6.16c-.57.06-1.15.12-1.73.16l-1.66.11c-.53,0-1,.05-1.41.05-.85,0-1.28-.07-1.28-.22s.08-.14.29-.23.51-.18.9-.29a24,24,0,0,1,3.68-.73c1.34-.17,2.67-.37,4-.61l1-1.25a7.11,7.11,0,0,1,.48-.61c.83-1,1.66-2.09,2.51-3.13a33.14,33.14,0,0,1,2.7-3l.18-.16a1.94,1.94,0,0,1,.29-.21.27.27,0,0,1,.22,0s0,.1,0,.25a15.33,15.33,0,0,1-.91,1.76c-.33.56-.69,1.14-1.09,1.75s-.82,1.26-1.29,2-1,1.48-1.57,2.35l2.11-.24,2.21-.24,5.63-.56q2.65-.27,5.51-.53l1.93-.16Z"/><path class="cls-1" d="M169.63,17.3s0,.08,0,.16l-.18.28-.19.27-.13.16c-.3.38-.6.76-.91,1.12s-.62.72-.91,1.09q-1.19,1.41-2.4,2.76c-.82.91-1.63,1.82-2.44,2.74-.55.64-1.12,1.28-1.69,1.9L159,29.72a2.25,2.25,0,0,1-.31.26,1.75,1.75,0,0,1-.36.16.88.88,0,0,1-.71-.2.91.91,0,0,1-.35-.67.67.67,0,0,1,.05-.4,3.18,3.18,0,0,0,.14-.37,25.64,25.64,0,0,1,1.31-3.18c.52-1,1.06-2.14,1.64-3.31a1.58,1.58,0,0,0-.26.19,20.21,20.21,0,0,0-2,1.84c-.59.63-1.16,1.26-1.71,1.9s-1.08,1.3-1.61,2-1.1,1.36-1.7,2.07a.81.81,0,0,1-.66.32,1,1,0,0,1-.68-.26.73.73,0,0,1-.26-.72,3.1,3.1,0,0,1,.29-.72c.3-.58.63-1.17,1-1.79l1-1.78c.34-.58.7-1.17,1.06-1.74l1-1.67A11.68,11.68,0,0,1,157,20.06l.17-.21a.47.47,0,0,1,.24-.18s.07,0,.07.13a.24.24,0,0,1,0,.16,3.5,3.5,0,0,1-.22.86l-.32.84c-.24.62-.48,1.24-.74,1.87s-.53,1.25-.83,1.87c.64-.6,1.35-1.25,2.11-2s1.52-1.39,2.26-2,1.4-1.19,2-1.66A5.23,5.23,0,0,1,163,18.9c.3-.1.46,0,.48.2a2.68,2.68,0,0,1-.17,1,12.14,12.14,0,0,1-.6,1.39c-.25.52-.51,1-.76,1.53s-.48,1-.68,1.36a5.63,5.63,0,0,0-.35.87c.92-.9,1.84-1.78,2.75-2.66s1.86-1.76,2.82-2.65l1.1-1,1.11-1,.16-.14a2.45,2.45,0,0,1,.29-.23l.28-.19C169.56,17.3,169.61,17.28,169.63,17.3Z"/><path class="cls-1" d="M177.83,23.48a.56.56,0,0,1-.1.16,9.93,9.93,0,0,1-.83.74l-.9.7c-1,.7-2,1.53-3.17,2.46a7.91,7.91,0,0,0-1,.82c-.29.29-.61.58-1,.88l-.4.3a2.62,2.62,0,0,0-.33.28.69.69,0,0,1-.67.17,1,1,0,0,1-.64-.37.78.78,0,0,1-.18-.7,3.2,3.2,0,0,1,.24-.74,15,15,0,0,1,.75-1.5c.27-.47.56-.95.88-1.44l-.93.83c-.3.28-.59.54-.89.77-.47.43-.94.83-1.41,1.22s-1,.76-1.47,1.15c-.13.11-.29.22-.47.35a2.43,2.43,0,0,1-.54.3,1.38,1.38,0,0,1-.56.12.88.88,0,0,1-.54-.2.84.84,0,0,1-.37-.7,2,2,0,0,1,.11-.8,8,8,0,0,1,1-2.22A20.73,20.73,0,0,1,166,24a18.44,18.44,0,0,1,1.41-1.52c.42-.4.7-.66.83-.77a14.3,14.3,0,0,1,1.36-1.12,12.82,12.82,0,0,1,1.68-1,10.45,10.45,0,0,1,1.84-.75,6.26,6.26,0,0,1,1.81-.29,4.81,4.81,0,0,1,1,.13,1.37,1.37,0,0,1,.8.48.85.85,0,0,1,.09.14c0,.08,0,.11,0,.08a3.75,3.75,0,0,0-1.66-.06,6.49,6.49,0,0,0-1.57.54,9,9,0,0,0-1.47.95l-1.38,1.07c-.38.32-.8.7-1.25,1.15a19.6,19.6,0,0,0-1.31,1.49,20.54,20.54,0,0,0-1.23,1.73,15,15,0,0,0-1,1.87c.85-.55,1.75-1.19,2.7-1.9s1.88-1.41,2.77-2.07c.43-.36.89-.72,1.39-1.07s1-.72,1.46-1.1l.49-.4.61-.45.55-.39a.82.82,0,0,1,.33-.17.4.4,0,0,1,.42.11.37.37,0,0,1,.09.4.48.48,0,0,1-.12.22l-.29.36L176,22a1.42,1.42,0,0,0-.18.22c-.34.39-.72.83-1.14,1.35l-1.21,1.48c-.4.48-.74.91-1,1.27s-.47.6-.56.7l.79-.51q.5-.32.78-.54.9-.61,1.83-1.17c.61-.37,1.25-.73,1.91-1.07a1.41,1.41,0,0,1,.33-.2C177.68,23.46,177.78,23.44,177.83,23.48Z"/><path class="cls-1" d="M185.7,23.32s-.07.15-.26.32l-.67.59c-.26.23-.51.44-.77.64s-.43.35-.51.43c-.34.26-.68.52-1,.79s-.67.53-1,.78c-.51.43-1,.86-1.47,1.28s-.94.88-1.41,1.35l-.43.43a2.76,2.76,0,0,1-.46.37,1,1,0,0,1-.93,0,.79.79,0,0,1-.51-.75,1.64,1.64,0,0,1,.2-1c.19-.34.36-.64.53-.9.49-.81,1-1.59,1.54-2.35s1-1.54,1.5-2.35a.56.56,0,0,0,.05-.48c-.05-.19-.1-.37-.14-.55-.71.64-1.51,1.3-2.4,2s-1.74,1.28-2.53,1.81-1.47,1-2,1.25-.87.41-.92.35.15-.2.5-.48l1.33-1.06,1.76-1.4c.64-.52,1.24-1,1.81-1.54a19.79,19.79,0,0,0,1.45-1.44,2.79,2.79,0,0,0,.71-1.12,10.05,10.05,0,0,1,0-1.22,2,2,0,0,1,.5-1.18,1.2,1.2,0,0,1,.93-.42.85.85,0,0,1,.8.58,1.32,1.32,0,0,1,0,1.1c-.15.36-.31.69-.48,1a2.73,2.73,0,0,1-.13.29.76.76,0,0,0-.06.32,3.07,3.07,0,0,0,.24.85c.11.27.25.55.4.85a2,2,0,0,1,.14,1.2,2.6,2.6,0,0,1-.53,1.1c-.25.36-.52.73-.8,1.1l-.8,1.11q.74-.48,1.44-1c.47-.34.95-.68,1.44-1l.55-.36c.3-.21.62-.41,1-.61l.95-.55C185.49,23.3,185.65,23.26,185.7,23.32Z"/><path class="cls-1" d="M194.59,23.16l-.59.64c-.22.24-.44.45-.66.66l-.38.36c-.85.75-1.73,1.48-2.62,2.2a21.58,21.58,0,0,1-3,2,14.15,14.15,0,0,1-1.6.82,4.51,4.51,0,0,1-1.73.4,2.08,2.08,0,0,1-1.36-.5,1.4,1.4,0,0,1-.49-1.32,7.17,7.17,0,0,1,1.18-3.3,22.65,22.65,0,0,1,2.21-2.78,14.44,14.44,0,0,1,1.28-1.2c.45-.38.92-.73,1.41-1.08a12.38,12.38,0,0,1,1.47-.91,10.12,10.12,0,0,1,1.6-.65,2.78,2.78,0,0,1,.83-.15,1.66,1.66,0,0,1,.83.18,1.24,1.24,0,0,1,.71,1.23,3.54,3.54,0,0,1-.61,1.62c-.17.23-.34.46-.51.67s-.35.43-.55.64a11.68,11.68,0,0,1-2.59,2.11,20.46,20.46,0,0,1-2.05,1,17.15,17.15,0,0,1-2.33.78,6.28,6.28,0,0,0-1,2.05,5.67,5.67,0,0,0,2.05-.43,14.88,14.88,0,0,0,2.24-1.09c.75-.44,1.48-.9,2.21-1.38l2-1.29a3.63,3.63,0,0,0,.42-.29l.75-.56c.27-.2.63-.45,1.07-.75C194.83,22.85,194.76,23,194.59,23.16Zm-8,1.38a5,5,0,0,0-.49.6l-.4.58a9.31,9.31,0,0,0,2.12-.85,9.52,9.52,0,0,0,1.92-1.33,9.88,9.88,0,0,0,1.57-1.72,7.89,7.89,0,0,0,1.07-2.08,11.8,11.8,0,0,0-3.07,2.08C188.39,22.67,187.49,23.58,186.59,24.54Z"/></g></g></svg>