<svg xmlns="http://www.w3.org/2000/svg" viewBox="0 0 172.66 45.54"><defs><style>.cls-1{fill:#f0f;}</style></defs><g id="Layer_2" data-name="Layer 2"><g id="Layer_1-2" data-name="Layer 1"><path class="cls-1" d="M30.63,6.22a9.42,9.42,0,0,1-.16,2.3,16.08,16.08,0,0,1-.62,2.26,22.58,22.58,0,0,1-.92,2.16q-.51,1.05-1.05,2a30.17,30.17,0,0,1-2.05,3.25c-.75,1-1.52,2-2.34,3S21.78,23.08,20.9,24s-1.78,1.73-2.72,2.54l-1.2,1a14.46,14.46,0,0,1-1.23,1c.3.75.59,1.48.86,2.19l.87,2.23c.45,1.17.92,2.33,1.42,3.48a36.81,36.81,0,0,0,1.68,3.39,15.6,15.6,0,0,0,.87,1.46,4.77,4.77,0,0,0,1.12,1.2,1.52,1.52,0,0,0,.32.26l.32.19c.15.08.18.15.11.19a.53.53,0,0,1-.24.06,1.15,1.15,0,0,1-.75-.11,3.89,3.89,0,0,1-.69-.4,7,7,0,0,1-1.23-1.2C20,41,19.68,40.5,19.33,40s-.65-1.1-.94-1.65-.57-1.1-.85-1.68c-.57-1.17-1.1-2.37-1.58-3.6S15,30.61,14.6,29.35c-.9.62-1.78,1.2-2.66,1.75a22.84,22.84,0,0,1-2.72,1.45c-.57.26-1.2.5-1.87.74a10.37,10.37,0,0,1-2,.49,6.41,6.41,0,0,1-2,0,4,4,0,0,1-1.84-.84,3.87,3.87,0,0,1-1-1.48A5.51,5.51,0,0,1,0,29.61a11.05,11.05,0,0,1,.48-3.7,28.06,28.06,0,0,1,1.28-3.44,40.34,40.34,0,0,1,3.84-6.72A43.82,43.82,0,0,1,10.47,10a39.79,39.79,0,0,1,3.81-3.41,22.74,22.74,0,0,1,4.25-2.64A14.2,14.2,0,0,1,20,3.35a6.68,6.68,0,0,1,1.49-.3c.13,0,.18.05.16.09a.48.48,0,0,1-.16.16c-.32.18-.65.35-1,.52s-.65.35-1,.54a27.75,27.75,0,0,0-4,3.07q-1.87,1.73-3.6,3.65C11,12,10.21,13,9.43,14s-1.54,2.05-2.29,3.14S5.68,19.34,5,20.44a32.54,32.54,0,0,0-1.87,3.44c-.23.45-.47.95-.7,1.5a13,13,0,0,0-.6,1.72,10.67,10.67,0,0,0-.32,1.76,5.22,5.22,0,0,0,.12,1.68,2,2,0,0,0,.84,1.15,3.14,3.14,0,0,0,1.32.41A4.74,4.74,0,0,0,5.22,32a11.68,11.68,0,0,0,1.28-.3,14.77,14.77,0,0,0,3.31-1.58c1.06-.68,2.08-1.38,3.06-2.13a1.18,1.18,0,0,0,.3-.21l.34-.27a4.66,4.66,0,0,0,.35-.32c-.1-.43-.22-.85-.35-1.27s-.24-.82-.35-1.23c-.24-.74-.44-1.51-.63-2.3s-.33-1.59-.46-2.4L12,19.67a.91.91,0,0,1,0-.33c0-.11.06-.14.11-.1a.8.8,0,0,1,.16.19l.16.27a.86.86,0,0,1,.08.18,25.5,25.5,0,0,1,1.26,3.17c.35,1.09.74,2.15,1.17,3.2a66.47,66.47,0,0,0,5.09-5,63.36,63.36,0,0,0,4.57-5.6c.52-.71,1.07-1.49,1.65-2.36a20.89,20.89,0,0,0,1.57-2.72A15,15,0,0,0,28.9,7.67a6.9,6.9,0,0,0,.13-3A3.75,3.75,0,0,0,28,2.55a4.3,4.3,0,0,0-1.88-1,6.82,6.82,0,0,0-2.37-.17,16.67,16.67,0,0,0-2.53.41,23.24,23.24,0,0,0-2.35.72c-.74.28-1.34.53-1.81.74A45.79,45.79,0,0,0,5.35,11.08q-.51.45-1,1a10.44,10.44,0,0,1-1,1,.75.75,0,0,1-.16.13.29.29,0,0,1-.16.06s0-.06,0-.17a1,1,0,0,1,.1-.21,11.29,11.29,0,0,1,.77-1.19A20.35,20.35,0,0,1,5.93,9.06c.74-.78,1.51-1.53,2.3-2.24a32.33,32.33,0,0,1,2.9-2.28,23,23,0,0,1,3.15-1.88A24.48,24.48,0,0,1,21.06.55,19.41,19.41,0,0,1,24.71.39a7.6,7.6,0,0,1,3.46,1.06,4.9,4.9,0,0,1,1.77,2A6.7,6.7,0,0,1,30.63,6.22Z"/><path class="cls-1" d="M37.32,21.67c0,.07,0,.17-.19.31l-.32.27c-1,.81-1.91,1.57-2.85,2.27q-.84.68-1.65,1.41L30.69,27.4l-.76.67c-.11.09-.22.16-.32.23a3,3,0,0,1-.36.16.89.89,0,0,1-.7-.18,1,1,0,0,1-.38-.62,1.63,1.63,0,0,1,.12-.88,6.73,6.73,0,0,1,.42-.85,13.61,13.61,0,0,1,1.06-1.79q.57-.84,1.44-1.92c-.6.49-1.18,1-1.73,1.47l-1.67,1.47c-.47.43-.93.84-1.4,1.25s-.95.8-1.44,1.18a5.23,5.23,0,0,1-.47.35,3.06,3.06,0,0,1-.54.32,1.24,1.24,0,0,1-.56.13.92.92,0,0,1-.55-.19,1.06,1.06,0,0,1-.4-.91,4,4,0,0,1,.26-1.23,7.24,7.24,0,0,1,.59-1.22c.24-.38.42-.68.55-.9a18.74,18.74,0,0,1,1.87-2.41,19.35,19.35,0,0,1,2.19-2.07,14.48,14.48,0,0,1,1.38-1,6.56,6.56,0,0,1,1.56-.74l.15,0a.83.83,0,0,1,.22,0l.18,0s0,0,0,.11a1.07,1.07,0,0,1-.28.25,3.05,3.05,0,0,0-.3.26c-.23.19-.45.4-.66.61l-.62.67c-.45.51-.89,1.06-1.33,1.65S27.31,22.4,26.89,23s-.85,1.23-1.25,1.85-.8,1.22-1.19,1.79a44.82,44.82,0,0,0,5.14-3.84q2.55-2.17,5.26-4.35c.26-.21.57-.46.93-.73a3,3,0,0,1,.77-.48.46.46,0,0,1,.42.14.4.4,0,0,1,.09.4,1.48,1.48,0,0,1-.29.45l-.35.45-.46.6-.9,1.16L33.94,21.9c-.39.51-.77,1-1.12,1.47s-.65.88-.91,1.25a5.83,5.83,0,0,0-.48.73l.48-.33L33,24.26l1.36-.94c.49-.33.95-.63,1.38-.89s.79-.48,1.09-.63S37.28,21.61,37.32,21.67Z"/><path class="cls-1" d="M47.49,22a.44.44,0,0,1-.09.16c-.26.26-.54.5-.83.74l-.9.7c-1,.71-2,1.53-3.17,2.47a6.51,6.51,0,0,0-1,.81c-.29.29-.61.58-1,.88l-.4.31-.33.27a.7.7,0,0,1-.68.17,1,1,0,0,1-.64-.36.81.81,0,0,1-.17-.71,3.12,3.12,0,0,1,.24-.73,14.16,14.16,0,0,1,.75-1.51c.27-.47.56-1,.88-1.44l-.93.83c-.3.28-.6.54-.89.77-.47.43-.94.83-1.41,1.22s-1,.77-1.47,1.15c-.13.11-.29.22-.47.35a3,3,0,0,1-.54.31,1.55,1.55,0,0,1-.56.11.92.92,0,0,1-.55-.19.88.88,0,0,1-.36-.71,2,2,0,0,1,.11-.8,8.09,8.09,0,0,1,1-2.22,19.21,19.21,0,0,1,1.49-2A20.44,20.44,0,0,1,37.09,21l.84-.77a14.3,14.3,0,0,1,1.36-1.12,12.82,12.82,0,0,1,1.68-1,11.27,11.27,0,0,1,1.84-.75,6.25,6.25,0,0,1,1.8-.29,4.82,4.82,0,0,1,1,.13,1.37,1.37,0,0,1,.8.48.69.69,0,0,1,.09.15c0,.07,0,.1,0,.08a3.76,3.76,0,0,0-1.66-.07,6.12,6.12,0,0,0-1.57.55,8.3,8.3,0,0,0-1.47.94l-1.38,1.07c-.38.32-.8.71-1.25,1.15A17.63,17.63,0,0,0,37.83,23c-.43.55-.84,1.12-1.23,1.73a15,15,0,0,0-1,1.87c.85-.55,1.75-1.19,2.7-1.9s1.87-1.4,2.77-2.07c.43-.36.89-.72,1.39-1.07s1-.72,1.46-1.1l.49-.4.61-.45.55-.38a.76.76,0,0,1,.33-.18.42.42,0,0,1,.42.11.4.4,0,0,1,.09.4.49.49,0,0,1-.12.23l-.29.35-.31.35a1.91,1.91,0,0,0-.17.22q-.51.59-1.14,1.35l-1.21,1.49-1,1.26c-.29.36-.47.6-.56.7l.79-.51q.49-.32.78-.54c.6-.41,1.21-.8,1.82-1.17s1.26-.73,1.92-1.07a1.62,1.62,0,0,1,.32-.19C47.34,22,47.45,22,47.49,22Z"/><path class="cls-1" d="M64.23,0a.2.2,0,0,1,0,.21l-.13.32c-.06.11-.11.23-.16.33a2,2,0,0,0-.11.23c-.67,1.19-1.36,2.35-2.1,3.48L59.53,8c-.82,1.19-1.63,2.37-2.45,3.53L54.6,15Q53,17.29,51.3,19.5T48,23.94l-.52.71c-.19.23-.36.47-.53.7q2.2-1.56,4.48-2.94l.21-.15L52,22c.14-.07.28-.14.41-.19s.21-.07.26-.05,0,.07-.08.14a3.73,3.73,0,0,0-.31.28c-.38.34-.77.66-1.16,1s-.79.63-1.17.95c-.58.44-1.14.89-1.7,1.34s-1.11.92-1.66,1.41c-.22.17-.42.35-.63.54l-.62.58a2.78,2.78,0,0,1-.54.38.75.75,0,0,1-.64,0,.81.81,0,0,1-.64-.77,1.8,1.8,0,0,1,.24-1c.18-.34.34-.63.49-.87,1.17-1.85,2.44-3.7,3.81-5.53,1.07-1.43,2.06-2.79,3-4.08S53,13.6,54,12.23q1.27-1.73,2.58-3.42t2.67-3.36c.64-.77,1.27-1.55,1.9-2.34a28.51,28.51,0,0,1,2-2.24l.19-.19.34-.34A2.5,2.5,0,0,1,64,.07C64.11,0,64.19,0,64.23,0Z"/><path class="cls-1" d="M57.48,21.7a1.68,1.68,0,0,1,.33-.19c.18-.08.29-.1.31-.06v.05s0,0-.1.11c-.79.72-1.59,1.4-2.41,2s-1.64,1.29-2.45,2l-1.27,1.15-1.23,1.15-.43.34a2.58,2.58,0,0,1-.51.29,1.15,1.15,0,0,1-.55.08,1.08,1.08,0,0,1-.56-.29.74.74,0,0,1-.17-.71,3.25,3.25,0,0,1,.24-.8,9.8,9.8,0,0,1,1-1.8c.45-.68.95-1.36,1.52-2.07s1.15-1.39,1.76-2.06,1.18-1.28,1.71-1.81,1-1,1.38-1.31a3.51,3.51,0,0,1,.77-.58.44.44,0,0,1,.35,0,.26.26,0,0,1,.11.1s0,.1,0,.19c-.27.51-.6,1.07-1,1.66S55.46,20.33,55,21s-.91,1.33-1.39,2-.94,1.4-1.39,2.13c.19-.15.45-.34.77-.56l.77-.53,1.82-1.2Q56.49,22.26,57.48,21.7Zm3.58-9.63a.8.8,0,0,1,0,.53,1.76,1.76,0,0,1-.26.51,2.35,2.35,0,0,1-.4.43,1.63,1.63,0,0,1-.45.29,1.66,1.66,0,0,1-.46.15A2.39,2.39,0,0,1,59,14a1.53,1.53,0,0,1-.48-.11.61.61,0,0,1-.32-.36,1,1,0,0,1,.13-1,2.1,2.1,0,0,1,.74-.69,1.81,1.81,0,0,1,.48-.21,2.33,2.33,0,0,1,.59-.08,1.47,1.47,0,0,1,.56.1A.65.65,0,0,1,61.06,12.07Z"/><path class="cls-1" d="M88.26,6.25c.83-.07,1.25-.07,1.25,0a7.23,7.23,0,0,1-1.22.29l-1.42.27L85,7.14,79.51,8q-2.64.44-5.62.89L71,9.32c-.93.13-1.83.25-2.7.35-.64,1-1.22,1.81-1.72,2.53s-.83,1.21-1,1.44c-.79,1.11-1.59,2.2-2.39,3.28l-2.41,3.25c-.69.89-1.36,1.79-2,2.67s-1.31,1.79-1.95,2.7c.74-.53,1.5-1.05,2.27-1.55l2.34-1.49c.17-.1.34-.2.51-.28l.51-.26c.19-.08.29-.11.29-.06s-.13.2-.37.43-.53.46-.85.72l-.93.72-.6.46-1.67,1.35c-.55.44-1.11.91-1.66,1.4-.22.18-.42.36-.63.55l-.62.57a3.36,3.36,0,0,1-.54.39.8.8,0,0,1-.68,0,.89.89,0,0,1-.56-.48,1.19,1.19,0,0,1,0-.7,2.86,2.86,0,0,1,.3-.76c.14-.24.26-.45.37-.62.21-.36.43-.7.64-1l.67-1c.81-1.21,1.64-2.4,2.48-3.55s1.68-2.32,2.51-3.52l1-1.28,1.28-1.73,1.45-1.93c.52-.67,1-1.32,1.48-1.94l-1.6.16c-.58.07-1.16.12-1.73.16l-1.67.12c-.53,0-1,0-1.4,0-.86,0-1.28-.07-1.28-.22s.07-.14.28-.23.52-.18.9-.28A24.41,24.41,0,0,1,63,9c1.34-.17,2.68-.37,4-.61.38-.49.7-.9,1-1.25s.42-.54.48-.6c.83-1,1.67-2.09,2.51-3.14a33.13,33.13,0,0,1,2.71-3s.08-.08.17-.17a1.68,1.68,0,0,1,.29-.2.25.25,0,0,1,.22,0c.06,0,0,.11,0,.25A17.1,17.1,0,0,1,73.37,2c-.34.56-.7,1.14-1.09,1.75S71.45,5,71,5.72,70,7.2,69.41,8.07l2.12-.24,2.2-.24L79.37,7l5.5-.53,1.94-.16Z"/><path class="cls-1" d="M73.86,17.77c-.13.21-.4.63-.83,1.25s-.94,1.34-1.54,2.17L69.62,23.8,67.8,26.33c-.57.78-1,1.42-1.43,1.93s-.58.79-.6.84c-1.67,2.28-3.44,4.48-5.33,6.59a39.32,39.32,0,0,1-6.29,5.66,34,34,0,0,1-3.54,2.23,17.19,17.19,0,0,1-3.88,1.55c-.43.11-.87.2-1.32.29a7.5,7.5,0,0,1-1.34.12H43.7a.47.47,0,0,1-.33-.09s0-.1.22-.18l.35-.14a11.67,11.67,0,0,0,1.27-.4l1.23-.5A22.82,22.82,0,0,0,50.1,42.3a35.07,35.07,0,0,0,3.33-2.48,39.12,39.12,0,0,0,3-2.87c1-1,1.9-2,2.8-3.05s1.88-2.2,2.75-3.33,1.73-2.29,2.56-3.49c.51-.68,1-1.4,1.49-2.14s1-1.56,1.65-2.44c-.56.47-1.11.95-1.65,1.43l-1.65,1.45c-.47.43-.94.85-1.41,1.25s-.95.8-1.44,1.19l-.44.35a3.41,3.41,0,0,1-.55.32,1.47,1.47,0,0,1-.57.13.91.91,0,0,1-.9-.93,3.57,3.57,0,0,1,.1-.87,7,7,0,0,1,.51-1.36,14,14,0,0,1,.73-1.29,18.91,18.91,0,0,1,1.88-2.42,20.18,20.18,0,0,1,2.19-2.06c.45-.36.91-.71,1.39-1a5.94,5.94,0,0,1,1.55-.73l.15,0a.78.78,0,0,1,.22,0l.18,0s0,.05,0,.11a1.1,1.1,0,0,1-.27.26,2.09,2.09,0,0,0-.3.25,7.81,7.81,0,0,0-.66.61c-.2.22-.4.44-.59.67A28.66,28.66,0,0,0,63.64,23c-.76,1.13-1.51,2.27-2.26,3.42l.95-.64.91-.64L65,23.9c.57-.42,1.14-.84,1.69-1.27l.52-.45,1-.84,1.2-1.08c.43-.38.84-.75,1.25-1.1l1.12-1,.77-.67.25-.22.44-.35.48-.36c.16-.1.28-.19.36-.25l.31-.15c.16-.07.25,0,.27.08a.55.55,0,0,1-.1.32c-.06.11-.11.22-.16.33l-.24.43A3,3,0,0,1,73.86,17.77Z"/><path class="cls-1" d="M100.32,10.82h3c1.11,0,2.23,0,3.36.08a23.18,23.18,0,0,1,3.23.4,7.52,7.52,0,0,1,2.59,1,3.47,3.47,0,0,1,1.46,1.8,4.51,4.51,0,0,1-.14,2.85,9,9,0,0,1-1.68,3,20.16,20.16,0,0,1-2.45,2.44,36.91,36.91,0,0,1-3.27,2.43c-1.13.75-2.3,1.45-3.52,2.11q-2.1,1.16-4.22,2.14c-1.41.67-2.84,1.28-4.29,1.86S91.48,32,90,32.46s-2.91.88-4.4,1.24c-.75.2-1.51.37-2.29.52a9.58,9.58,0,0,1-2.32.16,10.93,10.93,0,0,1-1.15-.13,2.94,2.94,0,0,1-1.06-.39,1.86,1.86,0,0,1-.73-.75,2.27,2.27,0,0,1-.26-.93,2.88,2.88,0,0,1,.11-1c.1-.34.21-.68.34-1A9.93,9.93,0,0,1,80,27.5c.74-.84,1.49-1.62,2.24-2.37a4.32,4.32,0,0,1,.36-.34l.5-.41c.17-.14.32-.25.45-.34s.21-.12.25-.1,0,.12,0,.21a.66.66,0,0,0-.09.18q-.42.6-.87,1.2l-.93,1.23-.44.59c-.22.29-.45.63-.71,1s-.51.79-.76,1.22a7.63,7.63,0,0,0-.61,1.21,3.21,3.21,0,0,0-.24,1,.67.67,0,0,0,.33.66,1.88,1.88,0,0,0,1,.29,8.32,8.32,0,0,0,1.12-.07,18.18,18.18,0,0,0,3-.57c1.12-.3,2.27-.66,3.44-1.08s2.34-.85,3.5-1.32,2.23-.92,3.19-1.35c1.45-.64,2.87-1.31,4.27-2s2.78-1.48,4.14-2.29c1.09-.68,2.16-1.39,3.22-2.14a21.86,21.86,0,0,0,2.93-2.5c.21-.25.51-.58.91-1a12.66,12.66,0,0,0,1.13-1.34,8.19,8.19,0,0,0,.92-1.56,2.86,2.86,0,0,0,.24-1.61,1.55,1.55,0,0,0-1.11-1.12,9.37,9.37,0,0,0-2.51-.53,31.48,31.48,0,0,0-3.49-.11c-1.3,0-2.64.06-4,.13l-4.08.19c-1.35.06-2.57.08-3.68.06a17,17,0,0,1-2.84-.25,2.43,2.43,0,0,1-1.55-.77c-.36-.53-.2-1.29.48-2.27A14.46,14.46,0,0,1,93.48,6,33.56,33.56,0,0,1,102,2.12c.74-.19,1.47-.35,2.19-.46a11.76,11.76,0,0,1,2.25-.15l.88.08a4.49,4.49,0,0,1,.9.18,2.56,2.56,0,0,1,.8.38,1.91,1.91,0,0,1,.59.67A1.42,1.42,0,0,1,109.64,4a2.84,2.84,0,0,1-.72,1,6.69,6.69,0,0,1-1.11.83c-.4.24-.74.44-1,.59a2.43,2.43,0,0,1-.47.19,2.22,2.22,0,0,1-.36.1l.72-.61A11.08,11.08,0,0,0,107.81,5a3.44,3.44,0,0,0,.74-1.2c.13-.38,0-.65-.48-.8A3.4,3.4,0,0,0,107,2.79a7.94,7.94,0,0,0-1.08.07c-.38,0-.76.09-1.15.16a10.66,10.66,0,0,0-1.12.25A21.14,21.14,0,0,0,99.3,4.91Q97.22,6,95.24,7.18c-.69.44-1.37.92-2,1.44a8.3,8.3,0,0,0-1.76,1.79,7.69,7.69,0,0,0,1.9.35c.78.06,1.59.1,2.43.1l2.48,0Z"/><path class="cls-1" d="M122.21,17.13a1.35,1.35,0,0,1,.67.43l.23.27-.27-.08a3.49,3.49,0,0,0-.5-.08,3.4,3.4,0,0,0-1.22.11,5.74,5.74,0,0,0-1.21.52,9.52,9.52,0,0,0-1.23.8c-.42.31-.84.63-1.27,1-.19.17-.54.51-1,1a18.87,18.87,0,0,0-1.56,1.77A14.91,14.91,0,0,0,113.43,25a4.28,4.28,0,0,0-.59,2,5.52,5.52,0,0,0,2.17-.91,17.75,17.75,0,0,0,2.43-1.85,20,20,0,0,0,2.15-2.28,7.73,7.73,0,0,0,1.31-2.19,2.1,2.1,0,0,0,.16-.62,1.93,1.93,0,0,0-.06-.66,1.06,1.06,0,0,1-.07-.22c0-.09.11,0,.27.14a1.49,1.49,0,0,1,.34.66,4.13,4.13,0,0,1-.37,3,10.21,10.21,0,0,1-2.08,2.85,15.19,15.19,0,0,1-2.91,2.27,11,11,0,0,1-2.86,1.29,2.7,2.7,0,0,1-1.64,0,1.58,1.58,0,0,1-.89-.9,2.37,2.37,0,0,1-.16-1.28,6.18,6.18,0,0,1,.46-1.59,9.69,9.69,0,0,1,.85-1.48,15.91,15.91,0,0,1,1.12-1.41,18.16,18.16,0,0,1,1.52-1.52,22.17,22.17,0,0,1,1.82-1.44,12.05,12.05,0,0,1,2-1.14,8.46,8.46,0,0,1,2-.62A4.05,4.05,0,0,1,122.21,17.13Z"/><path class="cls-1" d="M143.36,7.78c0,.09-.13.2-.48.34a9.83,9.83,0,0,1-1.36.42c-.56.14-1.21.28-1.93.44s-1.47.31-2.23.45l-2.24.4c-.73.13-1.38.24-1.93.32-.49.75-1,1.51-1.55,2.29s-1.16,1.68-1.84,2.7l-1.17,1.73-1.27,1.86c-.44.66-.93,1.36-1.45,2.11l-1.75,2.5c-.15.23-.4.61-.76,1.13s-.77,1.13-1.22,1.81l-1.42,2.16-1.43,2.16-1.2,1.81c-.35.52-.61.9-.78,1.13l-1.59,2.18c-.52.73-1.06,1.44-1.61,2.14l-.19.24a3.07,3.07,0,0,1-.29.34l-.31.29c-.09.08-.15.12-.17.09s0-.18.06-.48a13.65,13.65,0,0,1,.58-1.4c.21-.45.44-.9.67-1.35s.61-1.12,1.07-1.9l1.52-2.55,1.78-2.88,1.81-2.88,1.58-2.51L123.43,21q1.63-2.66,3.36-5.28t3.58-5.21q-2.55.38-5.25.57h-.54a1.39,1.39,0,0,1-.3,0c-.1,0-.16-.06-.18-.13a.18.18,0,0,1,.08-.19l.27-.18.31-.14.17-.06a14.48,14.48,0,0,1,1.83-.48c.61-.13,1.29-.26,2-.39l.31,0,.65-.12.83-.16.9-.15c.6-.77,1.19-1.56,1.78-2.38s1.2-1.62,1.85-2.39a23.76,23.76,0,0,1,2.1-2.16A12.6,12.6,0,0,1,139.68.36a2.45,2.45,0,0,1,.72-.21,1.15,1.15,0,0,1,.63.07.71.71,0,0,1,.38.4,1.2,1.2,0,0,1,0,.8,5,5,0,0,1-.59,1,6.84,6.84,0,0,1-1,1c.15-.37.28-.71.38-1s.22-.68.32-1a2.67,2.67,0,0,0-.36.22,3.07,3.07,0,0,0-.34.29,22.76,22.76,0,0,0-2.9,3.15q-1.29,1.71-2.64,3.7c.88-.11,1.84-.22,2.9-.32s2-.21,3-.29,1.69-.15,2.32-.19A5.11,5.11,0,0,1,143.36,7.78Z"/><path class="cls-1" d="M158.44,6.25c.83-.07,1.24-.07,1.24,0a6.87,6.87,0,0,1-1.21.29L157,6.81l-1.9.33L149.68,8q-2.64.44-5.61.89l-2.87.41c-.92.13-1.83.25-2.7.35-.64,1-1.21,1.81-1.71,2.53s-.84,1.21-1,1.44c-.79,1.11-1.58,2.2-2.38,3.28L131,20.17l-2,2.67q-1,1.34-2,2.7c.75-.53,1.51-1.05,2.27-1.55l2.34-1.49c.17-.1.34-.2.51-.28l.51-.26c.2-.08.29-.11.29-.06s-.12.2-.37.43-.52.46-.84.72l-.93.72-.61.46-1.66,1.35c-.56.44-1.11.91-1.67,1.4-.21.18-.42.36-.62.55l-.63.57a3.36,3.36,0,0,1-.54.39.78.78,0,0,1-.67,0,.84.84,0,0,1-.56-.48,1.18,1.18,0,0,1,0-.7,3.29,3.29,0,0,1,.31-.76l.36-.62c.22-.36.43-.7.64-1l.68-1c.81-1.21,1.63-2.4,2.48-3.55s1.68-2.32,2.51-3.52l.94-1.28c.4-.53.82-1.11,1.28-1.73l1.46-1.93L135.94,10l-1.6.16c-.58.07-1.15.12-1.73.16l-1.66.12c-.54,0-1,0-1.41,0-.85,0-1.28-.07-1.28-.22s.07-.14.29-.23a8.93,8.93,0,0,1,.89-.28A24.41,24.41,0,0,1,133.12,9c1.35-.17,2.68-.37,4-.61.39-.49.71-.9,1-1.25s.42-.54.48-.6l2.52-3.14a33,33,0,0,1,2.7-3A1.65,1.65,0,0,1,144,.26a1.62,1.62,0,0,1,.28-.2.27.27,0,0,1,.23,0c.05,0,.05.11,0,.25A17.1,17.1,0,0,1,143.54,2c-.33.56-.69,1.14-1.09,1.75s-.82,1.26-1.29,1.95-1,1.48-1.57,2.35l2.11-.24,2.21-.24L149.54,7,155,6.5,157,6.34Z"/><path class="cls-1" d="M147.49,15.82s0,.07-.05.16l-.17.27-.19.27-.13.16c-.3.38-.61.76-.91,1.12l-.92,1.09c-.79.94-1.59,1.86-2.4,2.77s-1.62,1.82-2.43,2.73c-.55.64-1.12,1.28-1.69,1.91s-1.17,1.27-1.76,1.93a1.71,1.71,0,0,1-.31.26,1.28,1.28,0,0,1-.37.16.86.86,0,0,1-.7-.19.93.93,0,0,1-.35-.68.68.68,0,0,1,0-.4,3.84,3.84,0,0,0,.14-.36,25.16,25.16,0,0,1,1.31-3.19c.51-1,1.06-2.14,1.63-3.31l-.25.19a20.21,20.21,0,0,0-2,1.84c-.6.63-1.17,1.27-1.71,1.91s-1.08,1.29-1.62,2-1.1,1.35-1.69,2.06a.81.81,0,0,1-.66.32,1,1,0,0,1-.69-.26.72.72,0,0,1-.25-.72,3.1,3.1,0,0,1,.29-.72c.29-.57.62-1.17,1-1.79l1-1.78c.34-.58.69-1.16,1.06-1.74l1-1.66a11.94,11.94,0,0,1,1.15-1.57,1.52,1.52,0,0,0,.18-.21.45.45,0,0,1,.24-.18s.06.05.06.13,0,.14,0,.16a4.27,4.27,0,0,1-.22.87c-.11.27-.22.55-.32.83-.24.62-.48,1.24-.74,1.87s-.53,1.25-.83,1.87l2.11-2c.77-.71,1.52-1.39,2.26-2s1.4-1.19,2-1.66a4.68,4.68,0,0,1,1.31-.83c.3-.11.46-.05.48.19a2.52,2.52,0,0,1-.18,1,11.89,11.89,0,0,1-.59,1.39c-.25.52-.51,1-.77,1.54s-.48.95-.67,1.36a5.25,5.25,0,0,0-.35.86c.92-.9,1.83-1.78,2.75-2.66s1.86-1.76,2.82-2.65l1.1-1c.37-.33.74-.66,1.11-1a1.29,1.29,0,0,1,.16-.15l.28-.22.29-.2C147.42,15.81,147.47,15.8,147.49,15.82Z"/><path class="cls-1" d="M155.68,22a.44.44,0,0,1-.09.16c-.26.26-.54.5-.83.74l-.9.7c-1,.71-2,1.53-3.17,2.47a6.51,6.51,0,0,0-1,.81c-.29.29-.61.58-.95.88l-.4.31-.33.27a.71.71,0,0,1-.68.17,1,1,0,0,1-.64-.36.81.81,0,0,1-.17-.71,3.12,3.12,0,0,1,.24-.73,14.16,14.16,0,0,1,.75-1.51c.27-.47.56-1,.88-1.44l-.93.83c-.3.28-.6.54-.89.77-.47.43-.94.83-1.41,1.22s-1,.77-1.47,1.15c-.13.11-.29.22-.47.35a3,3,0,0,1-.54.31,1.55,1.55,0,0,1-.56.11.9.9,0,0,1-.55-.19.88.88,0,0,1-.36-.71,1.87,1.87,0,0,1,.11-.8,8.09,8.09,0,0,1,1-2.22,19.21,19.21,0,0,1,1.49-2,20.44,20.44,0,0,1,1.4-1.52l.84-.77a14.3,14.3,0,0,1,1.36-1.12,12.82,12.82,0,0,1,1.68-1,11.27,11.27,0,0,1,1.84-.75,6.2,6.2,0,0,1,1.8-.29,4.82,4.82,0,0,1,1,.13,1.4,1.4,0,0,1,.8.48.69.69,0,0,1,.09.15c0,.07,0,.1,0,.08a3.76,3.76,0,0,0-1.66-.07,6.12,6.12,0,0,0-1.57.55,8,8,0,0,0-1.47.94l-1.38,1.07c-.38.32-.8.71-1.25,1.15A17.63,17.63,0,0,0,146,23c-.43.55-.84,1.12-1.23,1.73a15,15,0,0,0-1,1.87c.85-.55,1.75-1.19,2.7-1.9s1.87-1.4,2.77-2.07c.43-.36.89-.72,1.39-1.07s1-.72,1.46-1.1l.49-.4.61-.45.55-.38a.76.76,0,0,1,.33-.18.42.42,0,0,1,.42.11.4.4,0,0,1,.09.4.49.49,0,0,1-.12.23l-.29.35-.31.35a1.91,1.91,0,0,0-.17.22q-.51.59-1.14,1.35l-1.21,1.49-1,1.26c-.29.36-.47.6-.56.7l.79-.51q.49-.32.78-.54c.6-.41,1.2-.8,1.82-1.17s1.26-.73,1.92-1.07a1.62,1.62,0,0,1,.32-.19C155.53,22,155.64,22,155.68,22Z"/><path class="cls-1" d="M163.55,21.83c0,.05-.06.15-.25.32l-.67.59c-.26.23-.52.44-.77.64a5.34,5.34,0,0,0-.51.44c-.34.25-.68.51-1,.78s-.67.53-1,.78c-.51.43-1,.86-1.47,1.28s-.94.88-1.41,1.35l-.43.43a2.48,2.48,0,0,1-.47.37,1,1,0,0,1-.92.05.83.83,0,0,1-.52-.76,1.72,1.72,0,0,1,.21-1c.18-.34.36-.64.53-.9.49-.81,1-1.59,1.54-2.35s1-1.54,1.5-2.35a.56.56,0,0,0,.05-.48c-.05-.19-.1-.37-.14-.54-.71.64-1.51,1.29-2.41,2s-1.73,1.27-2.52,1.8a22.4,22.4,0,0,1-2,1.25c-.57.3-.87.42-.92.35s.15-.2.5-.48l1.33-1.05,1.76-1.41c.64-.51,1.24-1,1.81-1.54a19.79,19.79,0,0,0,1.45-1.44,2.63,2.63,0,0,0,.7-1.12,10,10,0,0,1,0-1.21,2,2,0,0,1,.5-1.19,1.22,1.22,0,0,1,.92-.41.83.83,0,0,1,.8.57,1.31,1.31,0,0,1,0,1.11c-.15.35-.31.68-.48,1l-.13.29a.76.76,0,0,0-.07.32,3.47,3.47,0,0,0,.25.85c.11.27.25.55.39.85a2.06,2.06,0,0,1,.15,1.2,2.72,2.72,0,0,1-.53,1.1l-.8,1.11c-.28.37-.54.74-.8,1.1q.74-.48,1.44-1t1.44-1l.54-.37c.3-.2.63-.41,1-.61l.94-.54Q163.49,21.74,163.55,21.83Z"/><path class="cls-1" d="M172.45,21.67l-.59.64c-.23.24-.44.46-.66.66s-.34.32-.38.37c-.86.74-1.73,1.47-2.63,2.19a21.82,21.82,0,0,1-2.94,2,14.1,14.1,0,0,1-1.6.81,4.51,4.51,0,0,1-1.73.4,2.07,2.07,0,0,1-1.36-.49,1.41,1.41,0,0,1-.49-1.33,7.06,7.06,0,0,1,1.18-3.3,22.65,22.65,0,0,1,2.21-2.78,13.18,13.18,0,0,1,1.28-1.2c.45-.37.92-.73,1.41-1.07a12.46,12.46,0,0,1,1.47-.92,9.75,9.75,0,0,1,1.6-.65,3.06,3.06,0,0,1,.83-.15,1.66,1.66,0,0,1,.83.18,1.25,1.25,0,0,1,.71,1.23,3.61,3.61,0,0,1-.61,1.62c-.17.23-.34.46-.51.67s-.36.43-.55.64a11.63,11.63,0,0,1-2.59,2.11,19.42,19.42,0,0,1-2.05,1,17.15,17.15,0,0,1-2.33.78,6.38,6.38,0,0,0-1,2.05,5.71,5.71,0,0,0,2.05-.43,15.36,15.36,0,0,0,2.24-1.09c.75-.43,1.48-.89,2.21-1.37l2-1.3.42-.29.75-.56c.27-.2.62-.45,1.07-.75C172.69,21.36,172.62,21.48,172.45,21.67Zm-8,1.38a6.51,6.51,0,0,0-.5.61c-.11.17-.25.36-.4.57a9.2,9.2,0,0,0,2.13-.85,9.9,9.9,0,0,0,1.92-1.32,10.32,10.32,0,0,0,1.57-1.73,7.74,7.74,0,0,0,1.07-2.08,12,12,0,0,0-3.07,2.08C166.25,21.18,165.35,22.09,164.45,23.05Z"/></g></g></svg>